<?xml version="1.0" standalone="no"?>
<!DOCTYPE svg PUBLIC "-//W3C//DTD SVG 20010904//EN"
 "http://www.w3.org/TR/2001/REC-SVG-20010904/DTD/svg10.dtd">
<svg version="1.0" xmlns="http://www.w3.org/2000/svg"
 width="303.000000pt" height="234.000000pt" viewBox="0 0 303.000000 234.000000"
 preserveAspectRatio="xMidYMid meet">

<g transform="translate(0.000000,234.000000) scale(0.100000,-0.100000)"
fill="#000000" stroke="none">
<path d="M170 2322 c0 -5 9 -17 21 -28 31 -28 49 -68 49 -109 0 -26 -194 -831
-226 -938 -5 -16 6 -17 162 -15 l167 3 26 100 26 100 160 0 160 0 26 -100 26
-100 229 -3 c367 -4 496 17 574 93 l37 36 26 -35 c15 -19 53 -47 84 -63 55
-26 66 -28 188 -28 114 0 135 3 170 21 22 12 49 32 60 43 l19 22 16 -33 c8
-18 26 -38 40 -45 31 -16 370 -19 370 -3 0 5 -13 24 -30 43 -16 19 -34 46 -40
61 -6 17 -10 200 -10 507 l0 479 -180 0 -180 0 0 -394 0 -395 -23 -27 c-18
-20 -35 -28 -74 -31 -45 -5 -55 -2 -77 20 l-26 26 0 401 0 402 -387 -4 c-366
-4 -392 -5 -454 -26 -79 -26 -138 -67 -169 -117 l-23 -37 -23 78 c-12 43 -30
84 -40 91 -14 10 -91 13 -346 13 -180 0 -328 -4 -328 -8z m1395 -163 c-26 -50
-40 -87 -33 -83 7 4 44 34 81 67 37 33 70 57 74 54 3 -4 -20 -41 -51 -83 -32
-41 -56 -77 -54 -79 2 -2 40 19 86 47 46 28 86 47 90 43 4 -3 -27 -37 -68 -75
-41 -38 -72 -69 -69 -70 3 0 49 18 102 39 54 22 97 35 97 30 0 -5 -38 -34 -85
-64 -47 -30 -85 -57 -85 -59 0 -2 46 8 101 21 56 13 107 22 113 20 6 -3 -23
-20 -64 -39 -138 -62 -137 -59 -17 -53 59 2 107 1 107 -3 0 -5 -42 -19 -92
-32 -51 -12 -97 -26 -101 -30 -5 -4 39 -11 97 -15 58 -4 106 -11 106 -15 0 -5
-35 -11 -77 -15 -145 -13 -150 -18 -43 -45 137 -33 137 -43 0 -36 l-115 6 98
-43 c145 -65 141 -72 -18 -35 -88 20 -95 23 -100 49 -10 44 -60 105 -117 143
-28 20 -109 58 -180 87 -137 55 -178 86 -178 138 0 17 10 37 26 52 23 22 34
24 112 24 48 0 101 -4 119 -8 30 -8 33 -6 95 72 34 44 69 80 76 80 7 1 -6 -35
-33 -90z m-695 -44 c17 -9 30 -22 30 -30 0 -21 -11 -18 -42 10 -43 37 -37 45
12 20z m-261 -252 c28 -111 51 -207 51 -213 0 -6 -39 -10 -105 -10 -60 0 -105
4 -105 10 0 5 20 91 45 192 25 101 47 194 50 207 3 13 8 22 10 20 2 -3 26 -95
54 -206z m235 167 c33 -14 46 -25 46 -40 0 -11 -2 -20 -5 -20 -7 0 -115 72
-115 76 0 9 32 2 74 -16z m-11 -81 c46 -9 61 -17 70 -36 5 -12 8 -25 5 -28 -7
-8 -178 68 -178 78 0 5 10 7 23 3 12 -3 48 -11 80 -17z m127 -130 c51 -53 111
-86 238 -130 101 -36 167 -72 182 -99 30 -56 -7 -123 -75 -136 -38 -7 -132 -1
-155 9 -11 5 -33 -16 -78 -73 -55 -69 -82 -94 -82 -75 0 3 18 41 40 85 22 44
40 82 40 86 0 3 -27 -18 -61 -48 -118 -103 -135 -104 -56 -2 73 95 75 99 46
83 -13 -6 -52 -30 -86 -51 -35 -22 -68 -38 -74 -36 -7 2 22 35 64 73 42 38 75
70 73 72 -1 2 -47 -15 -100 -38 -54 -22 -100 -38 -104 -35 -7 7 -13 3 88 70
47 31 81 56 77 56 -4 0 -48 -9 -99 -20 -50 -12 -96 -19 -102 -17 -6 3 23 20
64 39 137 62 136 58 11 51 -70 -3 -112 -2 -108 4 3 5 52 20 108 33 94 22 100
25 68 32 -19 4 -69 10 -111 13 -43 4 -78 10 -78 15 0 4 47 11 105 15 58 4 105
11 105 14 0 4 -45 18 -100 31 -55 13 -100 27 -100 32 0 4 48 5 108 1 l107 -6
45 -48z m781 -250 c43 -28 79 -55 79 -61 0 -6 -6 -8 -12 -5 -144 57 -146 58
-150 88 -3 16 -3 29 -1 29 2 0 40 -23 84 -51z m18 -137 c1 -10 -9 -8 -31 8
-18 11 -43 26 -55 32 -22 11 -30 37 -16 51 8 9 101 -74 102 -91z m-69 -64 c0
-13 -14 -8 -39 12 -15 13 -21 26 -17 37 6 15 10 13 31 -12 13 -17 24 -33 25
-37z"/>
<path d="M2565 2320 c-3 -6 1 -7 9 -4 18 7 21 14 7 14 -6 0 -13 -4 -16 -10z"/>
<path d="M2601 2327 c2 -1 13 -9 24 -17 19 -14 19 -14 6 3 -7 9 -18 17 -24 17
-6 0 -8 -1 -6 -3z"/>
<path d="M2580 2283 c0 -16 4 -23 8 -17 5 9 10 8 19 -1 10 -11 10 -15 0 -18
-8 -4 -8 -6 -1 -6 6 -1 17 6 24 15 11 12 11 15 -1 12 -8 -2 -14 5 -14 17 0 11
-8 21 -18 23 -13 3 -17 -3 -17 -25z"/>
<path d="M2551 2284 c0 -11 3 -14 6 -6 3 7 2 16 -1 19 -3 4 -6 -2 -5 -13z"/>
<path d="M2567 2249 c7 -7 15 -10 18 -7 3 3 -2 9 -12 12 -14 6 -15 5 -6 -5z"/>
<path d="M1915 966 c-41 -18 -65 -47 -71 -87 -10 -68 29 -102 133 -119 31 -5
64 -17 72 -25 15 -15 14 -18 -8 -36 -30 -25 -74 -24 -121 2 -36 20 -38 20 -64
4 -31 -20 -32 -27 -8 -48 49 -44 151 -60 216 -33 51 21 77 62 74 114 -4 58
-30 78 -122 95 -75 14 -100 34 -77 61 19 22 67 20 107 -5 l34 -21 30 22 c17
12 27 26 24 32 -13 20 -110 58 -149 58 -22 -1 -53 -7 -70 -14z"/>
<path d="M135 953 c-8 -21 -52 -137 -95 -253 l-29 -80 48 0 c44 0 49 3 55 25
6 23 10 25 71 25 61 0 66 -2 75 -25 8 -22 16 -25 56 -25 33 0 45 4 41 13 -2 6
-31 85 -63 174 l-59 163 -46 0 c-35 0 -49 -4 -54 -17z m69 -128 c9 -30 19 -61
22 -70 5 -12 -2 -15 -39 -15 l-44 0 20 70 c12 39 22 70 23 70 2 0 10 -25 18
-55z"/>
<path d="M560 940 c0 -28 2 -30 40 -30 38 0 40 2 40 30 0 28 -2 30 -40 30 -38
0 -40 -2 -40 -30z"/>
<path d="M2180 910 c0 -33 -3 -40 -20 -40 -13 0 -20 -7 -20 -20 0 -13 7 -20
20 -20 18 0 20 -7 20 -83 0 -108 12 -127 81 -127 48 0 49 1 49 30 0 25 -4 30
-25 30 -24 0 -25 2 -25 75 0 73 1 75 25 75 18 0 25 5 25 20 0 15 -7 20 -25 20
-22 0 -25 4 -25 40 l0 40 -40 0 -40 0 0 -40z"/>
<path d="M2610 910 c0 -33 -3 -40 -20 -40 -13 0 -20 -7 -20 -20 0 -13 7 -20
20 -20 18 0 20 -7 20 -88 0 -105 11 -122 78 -122 40 0 42 1 42 30 0 23 -4 30
-20 30 -24 0 -32 28 -28 96 3 45 5 49 31 52 37 4 39 42 2 42 -22 0 -25 4 -25
40 l0 40 -40 0 -40 0 0 -40z"/>
<path d="M1001 877 c-45 -16 -72 -54 -78 -109 -6 -54 15 -110 51 -133 61 -40
166 -25 201 29 40 60 25 166 -27 200 -33 22 -106 28 -147 13z m99 -67 c43 -43
15 -140 -40 -140 -67 0 -84 130 -20 153 27 10 40 7 60 -13z"/>
<path d="M1333 875 c-18 -8 -33 -10 -33 -5 0 6 -16 10 -35 10 l-35 0 0 -130 0
-130 35 0 35 0 0 83 c0 94 12 121 51 115 23 -3 24 -6 27 -100 l3 -98 39 0 40
0 0 109 c0 89 -3 112 -17 129 -24 27 -71 35 -110 17z"/>
<path d="M1565 883 c-26 -7 -65 -43 -65 -60 0 -9 13 -13 40 -13 22 0 40 4 40
9 0 13 27 21 45 15 8 -4 15 -14 15 -24 0 -19 -9 -23 -67 -35 -54 -11 -83 -41
-83 -85 0 -67 67 -100 133 -66 15 8 27 11 27 5 0 -5 16 -9 35 -9 l36 0 -3 111
c-3 106 -4 113 -28 130 -26 20 -92 31 -125 22z m75 -162 c0 -44 -70 -70 -78
-28 -2 12 7 22 30 32 44 19 48 18 48 -4z"/>
<path d="M2390 877 c-19 -6 -40 -23 -47 -37 -12 -24 -11 -25 22 -28 20 -2 45
4 60 14 20 13 28 14 40 4 27 -23 16 -37 -44 -53 -58 -16 -101 -52 -101 -83 0
-51 56 -92 107 -79 16 4 52 6 81 6 l52 -2 0 95 c0 103 -9 139 -38 155 -33 17
-95 21 -132 8z m90 -155 c0 -25 -34 -55 -57 -50 -29 5 -27 35 4 52 38 20 53
20 53 -2z"/>
<path d="M2825 876 c-50 -23 -68 -51 -73 -115 -5 -69 14 -113 58 -136 58 -30
151 -10 184 40 14 22 14 24 -14 35 -25 10 -31 9 -49 -9 -34 -34 -89 -23 -104
22 -6 15 2 17 88 17 95 0 95 0 95 25 0 39 -26 92 -54 110 -35 23 -95 28 -131
11z m93 -58 c26 -26 13 -38 -38 -38 -51 0 -64 12 -38 38 15 15 61 15 76 0z"/>
<path d="M380 750 l0 -130 40 0 40 0 0 83 c0 89 8 107 47 107 20 0 23 5 23 35
0 38 -5 40 -44 25 -17 -6 -26 -6 -26 0 0 6 -18 10 -40 10 l-40 0 0 -130z"/>
<path d="M560 750 l0 -130 40 0 40 0 0 130 0 130 -40 0 -40 0 0 -130z"/>
<path d="M680 850 l0 -30 61 0 61 0 -66 -74 c-45 -51 -66 -82 -66 -100 l0 -26
120 0 120 0 0 30 0 30 -72 0 -72 0 72 73 c54 54 72 79 72 100 l0 27 -115 0
-115 0 0 -30z"/>
<path d="M10 345 c0 -155 11 -187 72 -215 54 -25 101 -25 155 -1 64 29 73 57
73 211 l0 130 -45 0 -44 0 -3 -132 -3 -132 -27 -16 c-25 -13 -31 -13 -55 0
l-28 16 -3 132 -3 132 -44 0 -45 0 0 -125z"/>
<path d="M620 440 c0 -28 2 -30 40 -30 38 0 40 2 40 30 0 28 -2 30 -40 30 -38
0 -40 -2 -40 -30z"/>
<path d="M1690 440 c0 -28 2 -30 40 -30 38 0 40 2 40 30 0 28 -2 30 -40 30
-38 0 -40 -2 -40 -30z"/>
<path d="M1830 410 c0 -33 -3 -40 -20 -40 -13 0 -20 -7 -20 -20 0 -13 7 -20
20 -20 18 0 20 -7 20 -83 0 -106 13 -127 76 -127 42 0 44 1 44 30 0 23 -4 30
-20 30 -18 0 -20 7 -20 75 0 73 1 75 25 75 18 0 25 5 25 20 0 15 -7 20 -25 20
-22 0 -25 4 -25 40 l0 40 -40 0 -40 0 0 -40z"/>
<path d="M475 383 c-11 -3 -26 -10 -32 -15 -9 -7 -13 -7 -13 1 0 6 -17 11 -40
11 l-40 0 0 -130 0 -130 40 0 39 0 3 98 3 97 29 3 c16 2 32 -2 37 -10 5 -7 9
-52 9 -100 l0 -88 35 0 35 0 0 113 c0 96 -3 116 -17 130 -21 18 -60 27 -88 20z"/>
<path d="M1042 375 c-36 -16 -71 -79 -72 -128 0 -36 22 -87 48 -110 23 -21 88
-33 126 -23 25 6 86 52 86 65 0 4 -12 13 -26 20 -23 10 -30 9 -49 -9 -27 -25
-67 -26 -88 -2 -33 36 -22 42 72 42 50 0 92 4 95 8 11 18 -14 87 -42 115 -36
35 -100 45 -150 22z m106 -72 c14 -23 14 -23 -42 -23 -61 0 -65 4 -39 32 22
24 61 20 81 -9z"/>
<path d="M1500 383 c-47 -17 -75 -69 -60 -108 10 -28 62 -55 103 -55 32 0 51
-22 35 -38 -17 -17 -55 -15 -89 5 -28 17 -30 17 -51 -5 -22 -21 -22 -22 -3
-37 72 -54 200 -37 225 31 20 51 -14 91 -93 109 -33 7 -52 17 -52 26 0 18 47
24 75 9 17 -9 27 -8 47 5 21 14 23 19 12 30 -30 27 -110 42 -149 28z"/>
<path d="M620 250 l0 -130 40 0 40 0 0 130 0 130 -40 0 -40 0 0 -130z"/>
<path d="M763 251 l42 -130 42 -1 42 0 36 113 c19 61 38 120 41 130 4 14 -1
17 -35 17 l-40 0 -18 -80 c-10 -44 -20 -80 -23 -80 -3 0 -14 35 -25 78 l-20
77 -42 3 -41 3 41 -130z"/>
<path d="M1270 250 l0 -130 35 0 35 0 0 79 c0 87 12 111 56 111 21 0 24 5 24
35 0 38 -14 44 -53 24 -16 -9 -22 -9 -25 0 -2 6 -19 11 -38 11 l-34 0 0 -130z"/>
<path d="M1690 250 l0 -130 40 0 40 0 0 130 0 130 -40 0 -40 0 0 -130z"/>
<path d="M1980 372 c0 -4 18 -65 40 -136 22 -70 37 -132 34 -137 -3 -5 -16 -9
-30 -9 -20 0 -24 -5 -24 -30 0 -29 2 -30 43 -30 32 0 49 6 64 22 17 19 113
291 113 320 0 4 -17 8 -39 8 l-38 0 -18 -85 c-10 -47 -22 -82 -26 -78 -4 4
-15 43 -24 86 l-17 77 -39 0 c-21 0 -39 -3 -39 -8z"/>
</g>
</svg>
