<?xml version="1.0" standalone="no"?>
<!DOCTYPE svg PUBLIC "-//W3C//DTD SVG 20010904//EN"
 "http://www.w3.org/TR/2001/REC-SVG-20010904/DTD/svg10.dtd">
<svg version="1.0" xmlns="http://www.w3.org/2000/svg"
 width="256.000000pt" height="80.000000pt" viewBox="0 0 256.000000 80.000000"
 preserveAspectRatio="xMidYMid meet">

<g transform="translate(0.000000,80.000000) scale(0.100000,-0.100000)"
fill="#000000" stroke="none">
<path d="M520 726 c0 -23 8 -38 31 -57 l31 -25 -86 -57 -87 -56 40 -27 c23
-15 41 -31 41 -36 0 -5 4 -7 9 -3 5 3 13 0 17 -6 5 -8 3 -9 -6 -4 -10 6 -12 4
-7 -9 4 -10 7 -20 7 -22 0 -2 7 -4 16 -4 11 0 14 5 10 17 -5 13 0 11 18 -6
l25 -24 -72 -49 c-40 -28 -73 -51 -75 -53 -3 -3 46 -136 53 -143 9 -10 133 80
143 104 17 37 17 474 0 475 -7 0 -34 4 -60 8 l-48 8 0 -31z"/>
<path d="M782 724 c-17 -12 -22 -24 -20 -47 3 -27 9 -33 40 -42 42 -12 53 -29
21 -33 -13 -2 -23 1 -23 7 0 6 -11 11 -25 11 -28 0 -31 -8 -12 -34 19 -27 94
-27 113 -1 28 38 13 74 -36 84 -19 3 -36 13 -38 20 -3 10 5 12 37 6 34 -6 41
-4 41 9 0 16 -36 36 -63 36 -7 0 -23 -7 -35 -16z"/>
<path d="M1290 655 c0 -77 2 -85 19 -85 16 0 20 8 23 42 2 31 8 44 20 46 13 3
17 -6 20 -40 2 -32 8 -44 21 -46 16 -3 18 3 15 55 l-3 58 -37 -1 c-35 -1 -38
1 -38 27 0 22 -5 29 -20 29 -18 0 -20 -7 -20 -85z"/>
<path d="M1915 729 c-33 -19 -45 -41 -45 -80 0 -53 26 -81 77 -83 43 -1 83 24
83 51 0 18 -46 17 -54 -2 -3 -8 -15 -15 -26 -15 -27 0 -43 41 -30 75 11 28 47
34 56 10 6 -16 54 -21 54 -6 0 38 -77 71 -115 50z"/>
<path d="M1203 695 c-16 -17 -17 -35 -3 -35 6 0 10 -18 10 -40 0 -30 5 -42 21
-51 27 -14 50 4 31 23 -14 14 -16 68 -2 68 15 0 12 19 -4 36 -18 18 -37 17
-53 -1z"/>
<path d="M925 676 c-23 -17 -24 -71 -2 -93 24 -24 76 -21 99 6 23 30 23 56 -2
81 -23 23 -68 26 -95 6z m70 -37 c5 -14 1 -27 -10 -38 -15 -15 -17 -15 -30 2
-17 23 -8 57 15 57 10 0 22 -10 25 -21z"/>
<path d="M1060 636 c0 -61 16 -82 52 -70 13 4 33 7 46 5 21 -2 22 1 22 58 0
54 -2 61 -19 61 -16 0 -20 -8 -23 -42 -2 -35 -7 -43 -23 -43 -16 0 -21 8 -23
43 -2 28 -8 42 -18 42 -10 0 -14 -14 -14 -54z"/>
<path d="M1450 670 c-25 -25 -25 -51 -2 -81 23 -27 75 -30 100 -5 16 17 15 18
-24 11 -33 -5 -43 -3 -47 9 -5 13 2 16 38 16 37 0 45 3 45 18 0 47 -73 69
-110 32z m68 -18 c2 -7 -7 -12 -23 -12 -24 0 -26 2 -15 15 14 17 31 16 38 -3z"/>
<path d="M1580 630 c0 -53 2 -60 20 -60 16 0 20 7 20 36 0 27 5 37 20 41 11 3
20 14 20 24 0 22 -11 24 -28 7 -9 -9 -12 -9 -12 0 0 7 -9 12 -20 12 -18 0 -20
-7 -20 -60z"/>
<path d="M1670 629 c0 -52 2 -59 20 -59 16 0 20 7 20 33 0 41 13 62 34 54 11
-4 16 -19 16 -47 0 -33 3 -40 20 -40 17 0 20 7 20 41 0 66 -11 77 -75 77 l-55
-1 0 -58z"/>
<path d="M2050 630 c0 -53 2 -60 20 -60 16 0 20 7 20 36 0 27 5 37 20 41 11 3
20 14 20 24 0 22 -11 24 -28 7 -9 -9 -12 -9 -12 0 0 7 -9 12 -20 12 -18 0 -20
-7 -20 -60z"/>
<path d="M2160 670 c-26 -26 -26 -62 0 -85 24 -21 72 -24 94 -5 21 16 20 74 0
94 -22 22 -70 20 -94 -4z m68 -42 c-3 -36 -24 -44 -41 -17 -14 23 -2 49 23 49
18 0 21 -5 18 -32z"/>
<path d="M2302 681 c-25 -15 -10 -53 26 -65 39 -14 32 -28 -9 -19 -36 7 -39
-14 -4 -27 29 -11 69 1 78 23 8 21 -13 43 -46 51 -39 9 -24 27 16 19 29 -6 31
-5 18 10 -14 18 -57 22 -79 8z"/>
<path d="M2421 676 c-20 -24 -9 -49 27 -60 43 -12 41 -29 -3 -20 -23 4 -35 2
-35 -5 0 -16 47 -32 75 -25 47 12 41 69 -7 76 -12 2 -23 9 -26 15 -2 9 5 11
29 6 25 -5 31 -3 27 8 -6 20 -72 24 -87 5z"/>
<path d="M760 437 c0 -82 18 -109 75 -109 57 0 75 27 75 109 0 61 -1 64 -22
61 -21 -3 -24 -10 -28 -68 -4 -57 -8 -65 -25 -65 -17 0 -21 8 -25 65 -4 58 -7
65 -27 68 -22 3 -23 0 -23 -61z"/>
<path d="M1080 485 c0 -8 9 -15 20 -15 11 0 20 7 20 15 0 8 -9 15 -20 15 -11
0 -20 -7 -20 -15z"/>
<path d="M1640 485 c0 -8 9 -15 20 -15 11 0 20 7 20 15 0 8 -9 15 -20 15 -11
0 -20 -7 -20 -15z"/>
<path d="M1710 465 c0 -8 -4 -15 -10 -15 -5 0 -10 -7 -10 -15 0 -8 4 -15 9
-15 6 0 11 -19 13 -42 3 -39 6 -43 31 -46 19 -2 27 1 27 12 0 9 -4 16 -10 16
-5 0 -10 14 -10 30 0 17 5 30 10 30 6 0 10 7 10 15 0 8 -4 15 -10 15 -5 0 -10
7 -10 15 0 8 -9 15 -20 15 -11 0 -20 -7 -20 -15z"/>
<path d="M940 389 c0 -52 2 -59 20 -59 17 0 20 7 20 46 0 38 3 45 18 42 12 -2
18 -15 20 -46 3 -34 7 -42 23 -42 16 0 19 7 19 49 0 27 -6 53 -13 59 -6 6 -33
10 -60 10 l-47 0 0 -59z"/>
<path d="M1080 390 c0 -53 2 -60 20 -60 18 0 20 7 20 60 0 53 -2 60 -20 60
-18 0 -20 -7 -20 -60z"/>
<path d="M1146 428 c26 -85 31 -93 56 -96 23 -3 28 3 46 57 20 60 20 61 1 61
-14 0 -21 -9 -26 -30 -8 -44 -20 -45 -33 -5 -8 24 -18 35 -31 35 -17 0 -19 -4
-13 -22z"/>
<path d="M1286 428 c-21 -29 -20 -51 2 -78 21 -25 73 -30 98 -9 32 26 2 40
-36 17 -17 -11 -22 -10 -30 2 -8 12 -2 16 35 18 35 2 45 7 45 21 0 48 -86 70
-114 29z m72 -16 c2 -7 -7 -12 -23 -12 -24 0 -26 2 -15 15 14 17 31 16 38 -3z"/>
<path d="M1420 389 c0 -52 2 -60 18 -57 11 2 18 14 20 36 2 19 11 36 23 42 10
6 19 17 19 25 0 18 -12 19 -28 3 -9 -9 -12 -9 -12 0 0 7 -9 12 -20 12 -18 0
-20 -7 -20 -61z"/>
<path d="M1521 436 c-20 -24 -9 -49 27 -60 43 -12 41 -29 -3 -20 -34 6 -48 -7
-24 -21 19 -12 81 -7 90 7 18 27 9 46 -26 58 -43 14 -46 32 -4 23 25 -5 31 -3
27 8 -6 20 -72 24 -87 5z"/>
<path d="M1640 390 c0 -53 2 -60 20 -60 18 0 20 7 20 60 0 53 -2 60 -20 60
-18 0 -20 -7 -20 -60z"/>
<path d="M1790 440 c0 -6 9 -29 21 -51 14 -28 18 -50 14 -71 -6 -25 -4 -29 11
-26 11 2 28 28 46 72 32 80 33 86 13 86 -8 0 -21 -15 -29 -32 l-14 -33 -12 33
c-8 21 -19 32 -31 32 -10 0 -19 -5 -19 -10z"/>
</g>
</svg>
