<?xml version="1.0" standalone="no"?>
<!DOCTYPE svg PUBLIC "-//W3C//DTD SVG 20010904//EN"
 "http://www.w3.org/TR/2001/REC-SVG-20010904/DTD/svg10.dtd">
<svg version="1.0" xmlns="http://www.w3.org/2000/svg"
 width="240.000000pt" height="51.000000pt" viewBox="0 0 240.000000 51.000000"
 preserveAspectRatio="xMidYMid meet">

<g transform="translate(0.000000,51.000000) scale(0.100000,-0.100000)"
fill="#000000" stroke="none">
<path d="M0 265 l0 -245 375 0 375 0 0 245 0 245 -375 0 -375 0 0 -245z m356
111 c23 -36 15 -71 -16 -71 -20 0 -26 6 -28 28 -4 30 -17 36 -26 11 -8 -20 -8
-138 0 -158 9 -25 22 -19 26 12 2 21 8 27 28 27 20 0 26 -6 28 -27 7 -55 -65
-88 -116 -52 -20 14 -22 23 -22 115 0 86 3 102 20 119 29 29 85 27 106 -4z
m145 14 c13 -8 19 -21 19 -45 0 -31 -3 -35 -25 -35 -20 0 -25 5 -25 25 0 14
-4 25 -10 25 -23 0 -8 -48 25 -80 29 -28 35 -41 35 -76 0 -52 -20 -74 -65 -74
-43 0 -65 22 -65 66 0 29 3 34 24 34 19 0 25 -6 28 -27 4 -37 28 -43 28 -7 0
20 -11 39 -40 65 -30 28 -40 44 -40 68 0 56 58 89 111 61z m99 -98 c0 -60 3
-112 7 -115 3 -4 12 -2 20 4 9 8 13 41 13 115 l0 104 25 0 25 0 0 -135 0 -135
-25 0 c-14 0 -25 5 -25 12 0 9 -3 9 -12 0 -15 -15 -51 -15 -66 0 -8 8 -12 53
-12 135 l0 123 25 0 25 0 0 -108z"/>
<path d="M850 455 c0 -8 9 -15 20 -15 17 0 19 -8 22 -77 3 -65 6 -78 21 -81
15 -3 17 6 17 77 0 74 2 81 20 81 11 0 20 7 20 15 0 12 -13 15 -60 15 -47 0
-60 -3 -60 -15z"/>
<path d="M984 457 c-3 -8 -4 -49 -2 -93 3 -66 6 -79 21 -82 14 -3 17 5 17 53
0 74 24 71 28 -3 2 -38 7 -52 18 -52 12 0 14 12 12 63 -3 60 -4 62 -30 62 -25
-1 -28 3 -28 32 0 34 -25 48 -36 20z"/>
<path d="M1286 448 c-24 -34 -21 -123 4 -148 27 -27 65 -26 84 2 21 30 20 38
-4 38 -12 0 -20 -7 -20 -16 0 -9 -7 -14 -17 -12 -26 5 -26 121 0 126 10 2 17
-3 17 -12 0 -9 8 -16 20 -16 20 0 19 20 -3 48 -16 20 -64 14 -81 -10z"/>
<path d="M1524 457 c-3 -8 -4 -49 -2 -93 2 -62 6 -79 18 -79 12 0 16 18 18 93
2 78 0 92 -13 92 -9 0 -18 -6 -21 -13z"/>
<path d="M1587 463 c-13 -12 -7 -23 13 -23 11 0 20 7 20 15 0 15 -21 21 -33 8z"/>
<path d="M1662 458 c-7 -7 -12 -20 -12 -29 0 -10 -6 -20 -12 -23 -10 -5 -10
-7 0 -12 7 -3 12 -26 12 -60 0 -42 3 -54 15 -54 21 0 23 10 29 108 4 83 -3 99
-32 70z"/>
<path d="M2037 464 c-13 -13 -7 -24 14 -24 11 0 19 5 17 12 -5 14 -22 21 -31
12z"/>
<path d="M1112 398 c-7 -7 -12 -31 -12 -55 0 -43 17 -63 54 -63 16 0 46 26 46
41 0 15 -26 10 -40 -6 -11 -13 -15 -13 -21 -3 -15 23 -10 28 26 28 30 0 35 3
35 23 0 30 -18 47 -50 47 -14 0 -31 -5 -38 -12z m53 -18 c3 -6 -1 -13 -10 -16
-19 -8 -30 0 -20 15 8 14 22 14 30 1z"/>
<path d="M1409 394 c-13 -16 -11 -17 25 -10 29 6 37 4 34 -6 -3 -7 -17 -14
-31 -16 -19 -2 -29 -11 -33 -29 -8 -30 16 -59 41 -49 15 5 15 7 0 22 -12 12
-13 19 -4 30 14 17 33 8 25 -12 -8 -20 4 -44 21 -44 11 0 13 13 11 63 l-3 62
-36 3 c-24 2 -40 -2 -50 -14z"/>
<path d="M1582 348 c2 -50 6 -63 21 -66 15 -3 17 5 17 62 0 60 -2 66 -20 66
-19 0 -21 -5 -18 -62z"/>
<path d="M1722 398 c-30 -30 -5 -118 34 -118 37 0 54 20 54 63 0 49 -13 67
-50 67 -14 0 -31 -5 -38 -12z m56 -48 c4 -42 -12 -60 -28 -30 -14 26 -5 73 13
67 7 -2 13 -18 15 -37z"/>
<path d="M1832 348 c2 -48 7 -63 18 -63 11 0 16 13 18 48 2 33 7 47 18 47 7 0
14 7 14 15 0 11 -11 15 -35 15 l-36 0 3 -62z"/>
<path d="M1912 348 c2 -48 7 -63 18 -63 11 0 16 14 18 53 2 28 7 52 12 52 5 0
10 -24 12 -52 2 -39 7 -53 18 -53 12 0 15 13 15 60 l0 60 -48 3 -48 3 3 -63z"/>
<path d="M2032 348 c2 -48 7 -63 18 -63 11 0 16 15 18 63 3 57 1 62 -18 62
-19 0 -21 -5 -18 -62z"/>
<path d="M2096 394 c-5 -14 -1 -16 25 -10 37 7 36 -15 -2 -24 -29 -7 -38 -50
-14 -70 13 -11 21 -11 36 -2 11 7 19 8 19 2 0 -5 7 -10 15 -10 11 0 15 12 15
49 0 27 -3 56 -6 65 -9 22 -80 22 -88 0z m53 -76 c-8 -14 -14 -17 -22 -9 -7 7
-6 15 3 25 17 22 32 9 19 -16z"/>
<path d="M869 209 c-15 -29 1 -64 41 -84 31 -16 39 -38 18 -51 -6 -4 -16 0
-23 9 -14 20 -45 23 -45 4 0 -23 23 -37 62 -37 31 0 41 5 49 24 14 30 0 58
-41 83 -17 9 -30 23 -30 30 0 21 23 27 36 9 19 -26 44 -17 33 12 -12 31 -83
32 -100 1z"/>
<path d="M1430 159 c0 -91 10 -109 58 -109 54 0 62 13 62 102 0 63 -3 78 -15
78 -12 0 -15 -14 -15 -69 0 -48 -4 -72 -15 -81 -25 -21 -35 -1 -35 76 0 67 -2
74 -20 74 -18 0 -20 -7 -20 -71z"/>
<path d="M1700 214 c0 -9 7 -14 17 -12 25 5 28 28 4 28 -12 0 -21 -6 -21 -16z"/>
<path d="M2172 218 c7 -19 38 -22 38 -4 0 10 -9 16 -21 16 -12 0 -19 -5 -17
-12z"/>
<path d="M1003 190 c-15 -15 -19 -27 -14 -34 6 -6 11 -32 13 -56 2 -38 7 -46
26 -48 12 -2 22 1 22 7 0 6 -4 11 -10 11 -5 0 -10 18 -10 40 0 22 5 40 10 40
6 0 10 7 10 15 0 8 -4 15 -9 15 -5 0 -11 8 -13 17 -3 15 -6 14 -25 -7z"/>
<path d="M1193 190 c-15 -15 -19 -27 -14 -34 6 -6 11 -32 13 -56 2 -38 7 -46
26 -48 12 -2 22 1 22 7 0 6 -4 11 -10 11 -5 0 -10 18 -10 40 0 22 5 40 10 40
6 0 10 7 10 15 0 8 -4 15 -9 15 -5 0 -11 8 -13 17 -3 15 -6 14 -25 -7z"/>
<path d="M2243 192 c-24 -20 -30 -42 -14 -42 6 0 11 -21 13 -47 3 -41 6 -48
26 -51 12 -2 22 1 22 7 0 6 -4 11 -10 11 -5 0 -10 18 -10 40 0 22 5 40 10 40
6 0 10 7 10 15 0 8 -4 15 -9 15 -5 0 -11 7 -13 16 -3 14 -6 13 -25 -4z"/>
<path d="M1083 173 c-7 -2 -13 -11 -13 -19 0 -17 27 -19 32 -2 2 6 10 8 16 4
20 -12 14 -23 -17 -29 -31 -6 -45 -29 -36 -58 5 -14 16 -18 51 -17 l44 1 0 51
c0 29 -5 57 -12 64 -12 12 -43 15 -65 5z m45 -80 c-5 -25 -28 -28 -28 -4 0 12
6 21 16 21 9 0 14 -7 12 -17z"/>
<path d="M1266 164 c-19 -18 -21 -85 -4 -102 17 -17 63 -15 78 3 18 21 3 32
-22 16 -17 -10 -22 -10 -29 0 -12 19 -1 29 32 29 24 0 29 4 29 25 0 40 -54 59
-84 29z m52 -22 c2 -7 -5 -12 -17 -12 -14 0 -19 5 -14 15 6 17 25 15 31 -3z"/>
<path d="M1580 114 c0 -49 3 -64 14 -64 11 0 16 15 18 53 4 66 22 64 26 -3 2
-36 7 -50 18 -50 12 0 14 12 12 63 l-3 62 -42 2 -43 1 0 -64z"/>
<path d="M1700 116 c0 -60 2 -66 20 -66 19 0 21 5 18 62 -2 50 -6 63 -20 66
-16 3 -18 -5 -18 -62z"/>
<path d="M1750 176 c0 -4 8 -33 17 -67 14 -50 20 -59 36 -57 20 3 46 67 47
111 0 35 -25 11 -36 -34 l-11 -44 -9 45 c-7 30 -15 46 -27 48 -9 2 -17 1 -17
-2z"/>
<path d="M1879 164 c-14 -17 -17 -68 -6 -97 10 -25 73 -23 87 3 9 17 8 20 -10
20 -11 0 -20 -4 -20 -10 0 -5 -7 -10 -15 -10 -8 0 -15 9 -15 20 0 16 7 20 35
20 39 0 44 13 19 48 -18 26 -56 29 -75 6z m51 -25 c0 -5 -7 -9 -15 -9 -15 0
-20 12 -9 23 8 8 24 -1 24 -14z"/>
<path d="M1990 115 c0 -51 3 -65 15 -65 11 0 15 12 15 44 0 30 5 46 15 50 26
10 16 31 -15 33 l-30 2 0 -64z"/>
<path d="M2078 169 c-27 -15 -21 -42 12 -61 32 -18 40 -38 15 -38 -8 0 -15 5
-15 10 0 6 -7 10 -16 10 -9 0 -14 -7 -12 -18 5 -24 68 -30 84 -7 17 23 8 43
-28 61 -16 8 -26 19 -23 24 4 6 14 5 25 -2 24 -15 37 -4 20 17 -14 17 -37 19
-62 4z"/>
<path d="M2177 174 c-4 -4 -7 -34 -7 -66 0 -52 2 -58 20 -58 19 0 21 5 18 62
-3 57 -14 79 -31 62z"/>
<path d="M2300 162 c0 -10 6 -39 14 -65 7 -25 11 -57 9 -71 -4 -19 -1 -26 10
-26 15 0 21 16 63 163 4 11 0 17 -11 17 -16 0 -18 -4 -30 -55 l-7 -30 -12 39
c-12 42 -36 61 -36 28z"/>
</g>
</svg>
